# xmcd
#
# Track frame offsets: 
#        150
#        12660
#        29575
#        45337
#        60470
#        78267
#        90375
#        105950
#        119587
#        128950
#        142415
#        157085
#        170107
#        182092
#        193825
#
# Disc length: 2757 seconds
#
# Revision: 3
# Processed by: cddbd v1.5.2PL0 Copyright (c) Steve Scherf et al.
# Submitted via: ExactAudioCopyFreeDBPlugin 1.0
#
DISCID=d30ac30f
DTITLE=Various Artist - Sweet Soul Music:  Voices from the Shadows
DYEAR=1992
DGENRE=Soul
TTITLE0=Percy Sledge - True Love Travels on a Gravel Road
TTITLE1=O.V. Wright - Nickel and a Nail
TTITLE2=Aretha Franklin - My Song
TTITLE3=George Perkins and the Silver Stars - Crying in the Streets
TTITLE4=Laura Lee - Separation Line
TTITLE5=Soul Brothers Six - Some Kind of Wonderful
TTITLE6=Arthur Alexander - Rainbow Road
TTITLE7=Otis Clay - She's About a Mover
TTITLE8=The Invincibles - Heart Full of Love
TTITLE9=James Carr - Hold On (To What We've Got)
TTITLE10=Eddie Giles - Losing Boy
TTITLE11=The Enchanters - I Paid for the Party
TTITLE12=Solomon Burke - I Stayed Away Too Long
TTITLE13=Judy Clay - Greatest Love
TTITLE14=Don Covay and the Good Timers - It's in the Wind
EXTD=
EXTT0=
EXTT1=
EXTT2=
EXTT3=
EXTT4=
EXTT5=
EXTT6=
EXTT7=
EXTT8=
EXTT9=
EXTT10=
EXTT11=
EXTT12=
EXTT13=
EXTT14=
PLAYORDER=
